<svg width="20" height="20" viewBox="0 0 20 20" fill="none" xmlns="http://www.w3.org/2000/svg">
<path d="M14.0667 2.39999C13.9699 2.30299 13.855 2.22602 13.7284 2.17351C13.6019 2.12099 13.4662 2.09396 13.3292 2.09396C13.1922 2.09396 13.0565 2.12099 12.9299 2.17351C12.8034 2.22602 12.6884 2.30299 12.5917 2.39999L5.58333 9.40833C5.50608 9.48542 5.44479 9.57699 5.40297 9.6778C5.36115 9.77862 5.33963 9.88668 5.33963 9.99583C5.33963 10.105 5.36115 10.213 5.40297 10.3138C5.44479 10.4147 5.50608 10.5062 5.58333 10.5833L12.5917 17.5917C13 18 13.6583 18 14.0667 17.5917C14.475 17.1833 14.475 16.525 14.0667 16.1167L7.95 9.99999L14.075 3.87499C14.475 3.46666 14.475 2.80833 14.0667 2.39999V2.39999Z" fill="#545454"/>
</svg>
