<svg width="24" height="24" viewBox="0 0 24 24" fill="none" xmlns="http://www.w3.org/2000/svg">
<path fill-rule="evenodd" clip-rule="evenodd" d="M6 3C4.34315 3 3 4.34315 3 6V18C3 19.6569 4.34315 21 6 21H18C19.6569 21 21 19.6569 21 18V6C21 4.34315 19.6569 3 18 3H6ZM5 6C5 5.44772 5.44772 5 6 5H18C18.5523 5 19 5.44772 19 6V18C19 18.5523 18.5523 19 18 19H6C5.44772 19 5 18.5523 5 18V6ZM8.5 10C8.22386 10 8 10.2239 8 10.5V16.5C8 16.7761 8.22386 17 8.5 17H9.5C9.77614 17 10 16.7761 10 16.5V10.5C10 10.2239 9.77614 10 9.5 10H8.5ZM10 8C10 8.55228 9.55228 9 9 9C8.44772 9 8 8.55228 8 8C8 7.44772 8.44772 7 9 7C9.55228 7 10 7.44772 10 8ZM14 10C12.3431 10 11 11.3431 11 13V16.5C11 16.7761 11.2239 17 11.5 17H12.5C12.7761 17 13 16.7761 13 16.5V13C13 12.4477 13.4477 12 14 12C14.5523 12 15 12.4477 15 13V16.5C15 16.7761 15.2239 17 15.5 17H16.5C16.7761 17 17 16.7761 17 16.5V13C17 11.3431 15.6569 10 14 10Z" fill="#52555A"/>
</svg>
