<svg width="24" height="24" viewBox="0 0 24 24" fill="none" xmlns="http://www.w3.org/2000/svg">
<path d="M9.98884 10.0677H11.2433C11.0895 9.27232 11.1709 8.53221 11.4272 7.9088C11.6685 7.3161 12.0635 6.83088 12.5581 6.49615C13.0526 6.16141 13.6467 5.98022 14.2799 6.00172C14.9373 6.02321 15.6399 6.26582 16.3154 6.78175C16.4421 6.84624 16.626 6.88923 16.9215 6.8923C17.2623 6.89537 17.4945 6.88002 18.176 6.7449L18.4202 6.70804C18.4866 6.69269 18.559 6.70497 18.6223 6.7449C18.755 6.83088 18.7942 7.00593 18.7097 7.14105L18.176 8.00093H18.7037C18.7731 7.99786 18.8454 8.01935 18.9027 8.06849C19.0203 8.1729 19.0324 8.35409 18.9329 8.47386C18.6947 8.75639 18.5077 8.96522 18.3539 9.13412C17.793 9.75446 17.7267 9.82816 17.4553 11.3022C17.2321 12.5276 16.8341 13.627 16.3033 14.5851C15.3776 16.2557 14.0417 17.4933 12.4797 18.2242C10.9206 18.9582 9.13544 19.1885 7.31105 18.8415C6.26466 18.6419 5.20621 18.2519 4.16887 17.6592C4.06936 17.6162 4 17.5148 4 17.3981C4 17.2385 4.12665 17.1095 4.28044 17.1095C4.7388 17.1095 5.35096 17.1003 5.9812 16.9836C6.52098 16.8822 7.08187 16.701 7.58546 16.3786C7.15123 16.1022 6.55415 15.6508 6.09579 15.1809C5.67965 14.7571 5.36603 14.3026 5.34794 13.9095C5.34492 13.8788 5.34794 13.845 5.35699 13.8112C5.39619 13.6577 5.54998 13.5656 5.69774 13.6055C5.76107 13.6239 5.84249 13.6362 5.93295 13.6423C5.57109 13.2984 5.26049 12.9237 5.01623 12.5398C4.67849 12.0086 4.46138 11.4558 4.38297 10.9153C4.37694 10.8692 4.37996 10.817 4.39805 10.7679C4.45534 10.6235 4.6212 10.5498 4.76293 10.6082C4.85943 10.6481 4.971 10.6696 5.08559 10.6758C5.11574 10.6758 5.1459 10.6788 5.17606 10.6788C4.85641 10.1138 4.69056 9.55485 4.62421 9.05428C4.5247 8.30188 4.65437 7.66312 4.84133 7.32838C4.88656 7.23932 4.97402 7.1779 5.07654 7.16869C5.23335 7.15948 5.36603 7.27925 5.37508 7.43894C5.38111 7.51878 6.21038 8.40937 7.49801 9.17404C8.21571 9.59784 9.06608 9.95715 9.98884 10.0677Z" fill="#52555A"/>
</svg>
